<svg width="190" height="127" viewBox="0 0 190 127" fill="none" xmlns="http://www.w3.org/2000/svg">
<g clip-path="url(#clip0_13_187)">
<path d="M17.534 126.802L17.5252 126.852C17.5147 126.803 17.5045 126.753 17.4949 126.703C17.4773 126.624 17.4621 126.544 17.4477 126.463C16.8772 123.32 17.1911 120.102 18.3624 117.089C18.5875 116.501 18.8439 115.923 19.1316 115.357C20.2319 113.163 21.7917 111.168 23.7304 109.476C24.3599 108.912 25.0781 108.43 25.8633 108.044C25.9786 107.99 26.0945 107.94 26.213 107.893C26.9392 107.585 27.7568 107.481 28.5531 107.596C28.8424 107.644 29.1228 107.726 29.3863 107.841C29.4787 107.88 29.5676 107.924 29.6549 107.97C30.1872 108.275 30.6417 108.673 30.9899 109.14C31.3381 109.606 31.5726 110.13 31.6787 110.68C31.8299 111.499 31.7953 112.336 31.5769 113.144C31.5581 113.221 31.5379 113.298 31.5164 113.375C31.3615 113.913 31.1669 114.442 30.9338 114.958C28.6005 120.212 23.5862 124.874 17.534 126.802Z" fill="#F2F2F2"/>
<path d="M29.3707 107.858C27.5501 110.148 25.8302 112.495 24.2112 114.901C22.5941 117.305 21.0827 119.76 19.6771 122.267C18.8908 123.669 18.1388 125.085 17.4213 126.516C17.3418 126.675 17.6099 126.812 17.6903 126.652C18.9718 124.098 20.3625 121.589 21.8623 119.124C23.3613 116.663 24.9655 114.253 26.6749 111.896C27.6314 110.577 28.6197 109.276 29.6397 107.994C29.7538 107.85 29.4844 107.715 29.3707 107.858Z" fill="white"/>
<path d="M31.3188 113.158C29.9507 114.714 27.9369 115.735 25.7139 116.001C25.0938 116.075 24.4659 116.086 23.8429 116.033C23.6436 116.017 23.6422 116.288 23.8398 116.305C26.1583 116.475 28.4602 115.839 30.2457 114.533C30.7465 114.167 31.1969 113.751 31.5878 113.293C31.7076 113.154 31.4377 113.019 31.3188 113.158Z" fill="white"/>
<path d="M19.6337 121.599C19.3156 121.202 19.0513 120.775 18.8462 120.325C18.3775 119.299 18.2111 118.186 18.3624 117.089C18.5875 116.501 18.8439 115.923 19.1316 115.357C19.1491 115.379 19.1596 115.405 19.1621 115.432C19.1646 115.459 19.159 115.486 19.146 115.51C18.9434 115.935 18.7978 116.38 18.712 116.834C18.404 118.454 18.8315 120.116 19.9033 121.464C19.9169 121.479 19.9259 121.496 19.9295 121.515C19.9331 121.534 19.9312 121.553 19.9239 121.57C19.9119 121.594 19.8931 121.615 19.8692 121.63C19.8454 121.645 19.8174 121.655 19.7881 121.657C19.7587 121.66 19.729 121.656 19.702 121.646C19.6749 121.636 19.6513 121.619 19.6337 121.599Z" fill="white"/>
<path d="M25.9097 107.872C25.5353 109.178 25.6468 110.554 26.228 111.801C26.2486 111.832 26.2824 111.854 26.3221 111.864C26.3617 111.873 26.404 111.869 26.4398 111.851C26.4748 111.833 26.5004 111.803 26.5111 111.769C26.5219 111.734 26.517 111.697 26.4976 111.666C25.9534 110.483 25.8524 109.18 26.2092 107.943C26.2185 107.909 26.2122 107.873 26.1916 107.843C26.171 107.812 26.1378 107.79 26.099 107.781C26.0601 107.772 26.0187 107.776 25.9833 107.793C25.948 107.81 25.9216 107.838 25.9097 107.872H25.9097Z" fill="white"/>
<path d="M17.4959 120.24L17.5147 120.288C17.4794 120.249 17.4438 120.209 17.4091 120.169C17.3511 120.105 17.2951 120.04 17.2397 119.975C15.066 117.423 13.6362 114.446 13.0741 111.302C12.9612 110.689 12.8819 110.074 12.8359 109.455C12.6456 107.065 12.9682 104.664 13.787 102.378C14.0452 101.623 14.4252 100.904 14.9156 100.242C14.9893 100.148 15.0651 100.056 15.1452 99.9668C15.6246 99.3985 16.2936 98.9743 17.06 98.7527C17.3414 98.6772 17.6334 98.6362 17.9277 98.6307C18.0304 98.628 18.1321 98.6301 18.2339 98.6354C18.8674 98.6895 19.4813 98.8575 20.0372 99.1289C20.5931 99.4002 21.079 99.7691 21.4644 100.212C22.0333 100.877 22.4471 101.632 22.6824 102.436C22.7067 102.512 22.7296 102.588 22.7512 102.665C22.8997 103.205 23.0081 103.752 23.0758 104.304C23.7983 109.905 21.8321 116.072 17.4959 120.24Z" fill="#F2F2F2"/>
<path d="M17.9229 98.6519C17.5259 101.42 17.249 104.198 17.0922 106.987C16.936 109.773 16.9008 112.561 16.9864 115.352C17.0345 116.914 17.1205 118.474 17.2445 120.033C17.2582 120.205 17.5686 120.218 17.5548 120.044C17.3339 117.261 17.2336 114.473 17.2538 111.682C17.2746 108.892 17.4162 106.106 17.6787 103.323C17.8257 101.767 18.0105 100.213 18.2331 98.6627C18.258 98.4893 17.9477 98.4792 17.9229 98.6519V98.6519Z" fill="white"/>
<path d="M22.4612 102.553C22.0755 104.487 20.8343 106.211 19.0066 107.349C18.4967 107.667 17.9465 107.932 17.3669 108.139C17.1817 108.205 17.3247 108.446 17.5084 108.381C19.6522 107.589 21.3528 106.09 22.2409 104.208C22.49 103.68 22.668 103.128 22.7714 102.564C22.8034 102.392 22.493 102.382 22.4612 102.553V102.553Z" fill="white"/>
<path d="M16.5936 114.779C16.1014 114.557 15.6404 114.286 15.2199 113.97C14.2603 113.252 13.5224 112.335 13.074 111.302C12.9612 110.689 12.8818 110.074 12.8359 109.455C12.8631 109.468 12.8862 109.487 12.9027 109.509C12.9192 109.532 12.9286 109.558 12.93 109.585C12.9762 110.044 13.083 110.497 13.2482 110.934C13.8356 112.494 15.096 113.791 16.7608 114.55C16.7806 114.557 16.7979 114.569 16.811 114.584C16.8241 114.599 16.8326 114.617 16.8356 114.636C16.8375 114.661 16.8317 114.687 16.8187 114.71C16.8057 114.734 16.7859 114.753 16.7615 114.768C16.737 114.782 16.7086 114.791 16.6792 114.793C16.6497 114.795 16.6202 114.79 16.5936 114.779Z" fill="white"/>
<path d="M14.8653 100.071C15.2268 101.38 16.0561 102.553 17.2325 103.421C17.2672 103.44 17.3092 103.447 17.3494 103.439C17.3895 103.431 17.4245 103.41 17.4469 103.38C17.4681 103.349 17.475 103.313 17.4662 103.278C17.4574 103.243 17.4336 103.212 17.3997 103.192C16.2899 102.366 15.5086 101.253 15.1685 100.013C15.1585 99.9787 15.1337 99.9493 15.0994 99.9308C15.0651 99.9123 15.0239 99.9062 14.9846 99.9138C14.9453 99.9214 14.9108 99.942 14.8886 99.9714C14.8663 100.001 14.8579 100.037 14.8653 100.071L14.8653 100.071Z" fill="white"/>
<path d="M17.6302 126.835L17.6758 126.867C17.6219 126.851 17.5671 126.833 17.5133 126.816C17.4253 126.79 17.3384 126.762 17.2514 126.733C13.8497 125.607 10.8128 123.773 8.40412 121.388C7.93221 120.925 7.48652 120.444 7.06705 119.945C5.43573 118.02 4.23035 115.846 3.51317 113.533C3.26598 112.775 3.14367 111.99 3.14995 111.202C3.15409 111.088 3.16132 110.975 3.17375 110.861C3.22798 110.157 3.53062 109.484 4.03997 108.936C4.23067 108.74 4.45146 108.567 4.69608 108.424C4.78092 108.373 4.86788 108.327 4.95688 108.284C5.52397 108.031 6.14465 107.883 6.78003 107.85C7.41541 107.816 8.05182 107.898 8.6494 108.09C9.53739 108.381 10.3511 108.823 11.0441 109.39C11.1114 109.442 11.1776 109.496 11.2429 109.55C11.7001 109.935 12.1284 110.345 12.5251 110.778C16.5808 115.157 18.7189 121.28 17.6302 126.835Z" fill="#F2F2F2"/>
<path d="M4.70509 108.444C6.07387 110.963 7.55024 113.435 9.13421 115.858C10.7172 118.28 12.4036 120.646 14.1934 122.957C15.1948 124.25 16.2274 125.524 17.2911 126.779C17.4088 126.918 17.6784 126.783 17.5592 126.642C15.6606 124.401 13.8607 122.1 12.1596 119.738C10.4605 117.378 8.86539 114.964 7.37417 112.496C6.53996 111.115 5.73963 109.718 4.97317 108.307C4.88741 108.149 4.61964 108.287 4.70509 108.444Z" fill="white"/>
<path d="M10.9298 109.593C11.7952 111.404 11.8098 113.441 10.9705 115.262C10.7364 115.77 10.4358 116.252 10.0747 116.7C9.9595 116.843 10.2286 116.979 10.3428 116.837C11.6621 115.16 12.1722 113.095 11.7623 111.09C11.6473 110.528 11.4579 109.979 11.1979 109.455C11.119 109.295 10.8514 109.434 10.9298 109.593Z" fill="white"/>
<path d="M13.5093 122.659C12.9581 122.704 12.4027 122.693 11.8545 122.625C10.604 122.473 9.41756 122.047 8.40415 121.388C7.93224 120.925 7.48655 120.444 7.06708 119.945C7.09783 119.942 7.1287 119.947 7.15665 119.959C7.1846 119.97 7.20866 119.988 7.22645 120.01C7.54772 120.375 7.91618 120.706 8.32447 120.996C9.77936 122.034 11.6399 122.533 13.5093 122.387C13.5306 122.384 13.5525 122.386 13.5728 122.393C13.5931 122.399 13.6111 122.41 13.6252 122.424C13.6427 122.445 13.6536 122.47 13.6569 122.495C13.6603 122.521 13.6558 122.547 13.6441 122.571C13.6324 122.594 13.6138 122.615 13.5901 122.631C13.5665 122.646 13.5386 122.656 13.5093 122.659Z" fill="white"/>
<path d="M3.00222 111.081C4.11215 112.014 5.53308 112.611 7.05818 112.788C7.142 112.798 7.21263 112.719 7.21342 112.652C7.21245 112.616 7.19578 112.582 7.16688 112.557C7.13797 112.532 7.09905 112.517 7.05818 112.516C5.61471 112.343 4.27133 111.773 3.22176 110.889C3.07785 110.768 2.85803 110.96 3.00221 111.081H3.00222Z" fill="white"/>
<path d="M38.8214 90.9993C39.1246 90.8174 39.3785 90.5796 39.5653 90.3025C39.7521 90.0254 39.8672 89.7159 39.9025 89.3957C39.9378 89.0755 39.8924 88.7524 39.7696 88.4492C39.6468 88.1459 39.4495 87.87 39.1917 87.6407L40.167 68.5871L35.2013 69.0748L35.4898 87.712C35.0784 88.1166 34.851 88.6393 34.8505 89.1809C34.85 89.7226 35.0765 90.2455 35.4872 90.6507C35.8979 91.0559 36.4641 91.3152 37.0786 91.3795C37.6931 91.4437 38.3132 91.3085 38.8214 90.9993Z" fill="#FFB8B8"/>
<path d="M47.8801 123.253L50.7064 123.688L53.4997 114.355L49.7966 113.713L47.8801 123.253Z" fill="#FFB8B8"/>
<path d="M55.6954 126.823L46.8131 125.457L47.4164 122.453L52.8669 123.292C53.3176 123.361 53.7482 123.507 54.1343 123.722C54.5203 123.937 54.8542 124.217 55.1168 124.545C55.3795 124.873 55.5658 125.243 55.665 125.634C55.7643 126.024 55.7746 126.429 55.6954 126.823Z" fill="#2F2E41"/>
<path d="M40.1229 124.491L42.9925 124.491L44.3575 114.805L40.1224 114.805L40.1229 124.491Z" fill="#FFB8B8"/>
<path d="M48.5265 126.823L39.5081 126.823L39.5079 123.774L45.042 123.773C45.9661 123.773 46.8524 124.095 47.5059 124.666C48.1594 125.238 48.5265 126.014 48.5266 126.823L48.5265 126.823Z" fill="#2F2E41"/>
<path d="M52.3297 121.839C52.2849 121.839 52.2401 121.836 52.1957 121.832L48.8182 121.588C48.6644 121.573 48.5159 121.53 48.3817 121.462C48.2475 121.394 48.1304 121.304 48.0376 121.195C47.9447 121.087 47.878 120.963 47.8415 120.831C47.805 120.7 47.7994 120.563 47.8252 120.429L50.944 105.132L48.8366 95.4071C48.8194 95.3281 48.7702 95.2572 48.6979 95.2074C48.6257 95.1577 48.5354 95.1325 48.4436 95.1365C48.3518 95.1405 48.2648 95.1734 48.1985 95.2292C48.1323 95.2849 48.0913 95.3597 48.0832 95.4398L45.4486 121.378C45.4197 121.638 45.2764 121.879 45.0489 122.048C44.8214 122.218 44.5275 122.303 44.2293 122.287L41.0473 122.183C40.7684 122.166 40.5065 122.06 40.3108 121.885C40.1152 121.71 39.9995 121.479 39.9855 121.235L39.7716 90.1468L56.2684 88.3422L57.4208 103.918L57.4162 103.935L53.4394 121.075C53.3788 121.292 53.2365 121.486 53.0353 121.624C52.8341 121.763 52.5857 121.838 52.3297 121.839Z" fill="#2F2E41"/>
<path d="M45.2106 56.24C48.3855 56.24 50.9593 53.9876 50.9593 51.209C50.9593 48.4304 48.3855 46.1779 45.2106 46.1779C42.0356 46.1779 39.4619 48.4304 39.4619 51.209C39.4619 53.9876 42.0356 56.24 45.2106 56.24Z" fill="#FFB8B8"/>
<path d="M50.6273 92.4189C49.7282 92.4236 48.8464 92.2029 48.0862 91.7828C45.3015 90.2596 42.1386 90.865 40.501 91.3614C40.3385 91.4112 40.1653 91.4282 39.9942 91.4111C39.8231 91.3941 39.6587 91.3434 39.5132 91.2629C39.3693 91.1838 39.2477 91.0773 39.1576 90.9514C39.0674 90.8254 39.011 90.6832 38.9925 90.5354L36.0147 67.2605C35.5157 63.3608 38.1998 59.6944 42.397 58.5426C42.5546 58.4993 42.715 58.4583 42.878 58.4195C44.1841 58.1095 45.5519 58.0539 46.8853 58.2564C48.2186 58.4589 49.485 58.9147 50.5954 59.5917C51.7265 60.2761 52.6724 61.1691 53.3666 62.2079C54.0608 63.2467 54.4864 64.406 54.6135 65.6043L57.1203 89.0352C57.1374 89.1869 57.114 89.34 57.052 89.4824C56.99 89.6249 56.891 89.7528 56.7629 89.856C55.8841 90.5675 53.3335 92.4187 50.6273 92.4189Z" fill="#6C63FF"/>
<path d="M41.5596 72.2516L34.8413 71.6051C34.6501 71.5867 34.4658 71.5325 34.3007 71.4461C34.1357 71.3597 33.9939 71.2433 33.8849 71.1046C33.7759 70.9659 33.7024 70.8083 33.6693 70.6425C33.6362 70.4767 33.6444 70.3066 33.6931 70.1438L35.4032 64.4398C35.5163 63.5845 36.0123 62.8032 36.7826 62.2675C37.5528 61.7317 38.5344 61.4851 39.5121 61.5817C40.4898 61.6783 41.3838 62.1103 41.9981 62.7829C42.6125 63.4555 42.897 64.3138 42.7893 65.1697L43.0431 71.0435C43.0503 71.2117 43.016 71.3793 42.9426 71.5348C42.8691 71.6904 42.7582 71.8302 42.6174 71.9449C42.4766 72.0595 42.3093 72.1462 42.1267 72.1992C41.9442 72.2521 41.7507 72.27 41.5596 72.2516V72.2516Z" fill="#6C63FF"/>
<path d="M57.0935 90.1835C57.3694 89.9709 57.5887 89.708 57.736 89.4133C57.8833 89.1185 57.9549 88.7991 57.9458 88.4775C57.9368 88.1559 57.8473 87.8399 57.6836 87.5519C57.5199 87.2638 57.2861 87.0107 56.9985 86.8103L55.343 67.7926L50.4773 68.7512L53.3335 87.2715C52.9808 87.7166 52.827 88.2594 52.9011 88.7971C52.9752 89.3349 53.2721 89.8301 53.7356 90.189C54.199 90.548 54.7968 90.7457 55.4157 90.7447C56.0346 90.7436 56.6316 90.544 57.0935 90.1835V90.1835Z" fill="#FFB8B8"/>
<path d="M48.6118 71.0561C48.471 70.9415 48.3601 70.8017 48.2866 70.6461C48.2131 70.4906 48.1789 70.323 48.1862 70.1548L48.4401 64.281C48.3324 63.4251 48.6169 62.5668 49.2312 61.8942C49.8455 61.2216 50.7395 60.7896 51.7172 60.693C52.6949 60.5964 53.6765 60.843 54.4468 61.3788C55.217 61.9145 55.7131 62.6958 55.8261 63.5511L57.5362 69.2551C57.585 69.4179 57.5931 69.588 57.56 69.7538C57.5269 69.9196 57.4534 70.0772 57.3444 70.2159C57.2355 70.3545 57.0936 70.471 56.9286 70.5574C56.7636 70.6438 56.5792 70.698 56.388 70.7164L49.6697 71.3629C49.4786 71.3814 49.2851 71.3635 49.1025 71.3106C48.9199 71.2576 48.7526 71.1708 48.6118 71.0561Z" fill="#6C63FF"/>
<path d="M44.8687 56.4296C44.7665 56.4295 44.6647 56.4191 44.5652 56.3986L44.536 56.3924C39.4816 55.7157 38.3646 53.1536 38.1194 52.0836C37.8657 50.9758 38.1546 49.9065 38.8076 49.4912C38.4516 48.5074 38.5088 47.6352 38.9778 46.8975C39.796 45.6111 41.5715 45.1761 41.8096 45.1229C43.2275 44.2074 44.9241 44.8185 45.2328 44.9424C47.9756 44.0544 49.0239 44.7936 49.2135 44.9586C50.4396 45.1514 51.1869 45.5659 51.435 46.1909C51.9011 47.3648 50.4273 48.8251 50.3643 48.8867L50.3317 48.9186L48.1362 49.0101C47.9278 49.0188 47.7239 49.0657 47.5376 49.1478C47.3514 49.23 47.1869 49.3454 47.0549 49.4867C46.9229 49.6281 46.8263 49.7921 46.7714 49.9682C46.7165 50.1443 46.7045 50.3285 46.7362 50.5089C46.7956 50.7417 46.8707 50.9712 46.961 51.1962C47.336 52.2217 47.6169 53.0978 47.2545 53.4308C47.1725 53.4953 47.0713 53.5382 46.9626 53.5547C46.8539 53.5712 46.7422 53.5606 46.6401 53.5241C46.2968 53.4438 46.0637 53.4607 45.9476 53.5742C45.7673 53.7502 45.8224 54.1958 46.1026 54.8289C46.1905 55.0291 46.2142 55.2465 46.171 55.4576C46.1279 55.6688 46.0196 55.8655 45.8578 56.0266C45.736 56.1524 45.5845 56.2535 45.4137 56.3231C45.243 56.3926 45.057 56.429 44.8687 56.4296Z" fill="#2F2E41"/>
<path d="M112.76 72.5129H84.4392C83.3843 72.5119 82.3729 72.1446 81.6269 71.4918C80.881 70.839 80.4614 69.9539 80.4602 69.0306V31.7845C80.4614 30.8613 80.881 29.9762 81.6269 29.3233C82.3729 28.6705 83.3843 28.3033 84.4392 28.3022H112.76C113.815 28.3033 114.827 28.6705 115.573 29.3233C116.319 29.9762 116.738 30.8613 116.739 31.7845V69.0306C116.738 69.9539 116.319 70.839 115.573 71.4918C114.827 72.1446 113.815 72.5119 112.76 72.5129ZM84.4392 28.7119C83.5084 28.7128 82.616 29.0369 81.9578 29.6129C81.2996 30.1889 80.9294 30.9699 80.9283 31.7845V69.0306C80.9294 69.8453 81.2996 70.6262 81.9578 71.2023C82.616 71.7783 83.5084 72.1023 84.4392 72.1032H112.76C113.691 72.1023 114.584 71.7783 115.242 71.2023C115.9 70.6262 116.27 69.8453 116.271 69.0306V31.7845C116.27 30.9699 115.9 30.1889 115.242 29.6129C114.584 29.0369 113.691 28.7128 112.76 28.7119H84.4392Z" fill="#3F3D56"/>
<path d="M108.43 46.2084H88.7693C88.2418 46.2079 87.7361 46.0243 87.3631 45.6979C86.9902 45.3715 86.7804 44.9289 86.7798 44.4673V36.2738C86.7804 35.8121 86.9902 35.3696 87.3631 35.0432C87.7361 34.7167 88.2418 34.5331 88.7693 34.5326H108.43C108.958 34.5332 109.463 34.7168 109.836 35.0432C110.209 35.3696 110.419 35.8121 110.42 36.2738V44.4673C110.419 44.9289 110.209 45.3715 109.836 45.6979C109.463 46.0243 108.958 46.2079 108.43 46.2084Z" fill="#6C63FF"/>
<path d="M107.026 53.8899H90.1737C89.6771 53.8899 89.2008 53.7172 88.8496 53.4099C88.4985 53.1026 88.3012 52.6858 88.3012 52.2512C88.3012 51.8166 88.4985 51.3997 88.8496 51.0924C89.2008 50.7851 89.6771 50.6125 90.1737 50.6125H107.026C107.523 50.6125 107.999 50.7851 108.35 51.0924C108.701 51.3997 108.898 51.8166 108.898 52.2512C108.898 52.6858 108.701 53.1026 108.35 53.4099C107.999 53.7172 107.523 53.8899 107.026 53.8899Z" fill="#CCCCCC"/>
<path d="M107.026 60.035H90.1737C89.6771 60.035 89.2008 59.8624 88.8496 59.555C88.4985 59.2477 88.3012 58.8309 88.3012 58.3963C88.3012 57.9617 88.4985 57.5449 88.8496 57.2376C89.2008 56.9302 89.6771 56.7576 90.1737 56.7576H107.026C107.523 56.7576 107.999 56.9302 108.35 57.2376C108.701 57.5449 108.898 57.9617 108.898 58.3963C108.898 58.8309 108.701 59.2477 108.35 59.555C107.999 59.8624 107.523 60.035 107.026 60.035Z" fill="#CCCCCC"/>
<path d="M107.026 66.1802H90.1737C89.6771 66.1802 89.2008 66.0075 88.8496 65.7002C88.4985 65.3929 88.3012 64.9761 88.3012 64.5415C88.3012 64.1069 88.4985 63.6901 88.8496 63.3827C89.2008 63.0754 89.6771 62.9028 90.1737 62.9028H107.026C107.523 62.9028 107.999 63.0754 108.35 63.3827C108.701 63.6901 108.898 64.1069 108.898 64.5415C108.898 64.9761 108.701 65.3929 108.35 65.7002C107.999 66.0075 107.523 66.1802 107.026 66.1802Z" fill="#CCCCCC"/>
<path d="M181.808 93.4065H153.487C152.432 93.4054 151.42 93.0382 150.674 92.3854C149.929 91.7326 149.509 90.8474 149.508 89.9242V52.6781C149.509 51.7548 149.929 50.8697 150.674 50.2169C151.42 49.5641 152.432 49.1968 153.487 49.1958H181.808C182.863 49.1968 183.874 49.5641 184.62 50.2169C185.366 50.8697 185.786 51.7548 185.787 52.6781V89.9242C185.786 90.8474 185.366 91.7326 184.62 92.3854C183.874 93.0382 182.863 93.4054 181.808 93.4065ZM153.487 49.6055C152.556 49.6064 151.664 49.9304 151.005 50.5064C150.347 51.0825 149.977 51.8634 149.976 52.6781V89.9242C149.977 90.7388 150.347 91.5198 151.005 92.0958C151.664 92.6718 152.556 92.9959 153.487 92.9968H181.808C182.739 92.9959 183.631 92.6718 184.289 92.0958C184.948 91.5198 185.318 90.7388 185.319 89.9242V52.6781C185.318 51.8634 184.948 51.0825 184.289 50.5064C183.631 49.9304 182.739 49.6064 181.808 49.6055H153.487Z" fill="#3F3D56"/>
<path d="M176.074 58.3963H159.221C158.725 58.3963 158.248 58.2237 157.897 57.9163C157.546 57.609 157.349 57.1922 157.349 56.7576C157.349 56.323 157.546 55.9062 157.897 55.5989C158.248 55.2915 158.725 55.1189 159.221 55.1189H176.074C176.57 55.1189 177.046 55.2915 177.398 55.5989C177.749 55.9062 177.946 56.323 177.946 56.7576C177.946 57.1922 177.749 57.609 177.398 57.9163C177.046 58.2237 176.57 58.3963 176.074 58.3963Z" fill="#CCCCCC"/>
<path d="M176.074 64.5415H159.221C158.725 64.5415 158.248 64.3688 157.897 64.0615C157.546 63.7542 157.349 63.3374 157.349 62.9028C157.349 62.4681 157.546 62.0513 157.897 61.744C158.248 61.4367 158.725 61.264 159.221 61.264H176.074C176.57 61.264 177.046 61.4367 177.398 61.744C177.749 62.0513 177.946 62.4681 177.946 62.9028C177.946 63.3374 177.749 63.7542 177.398 64.0615C177.046 64.3688 176.57 64.5415 176.074 64.5415Z" fill="#CCCCCC"/>
<path d="M177.478 80.2116H157.817C157.289 80.211 156.784 80.0274 156.411 79.701C156.038 79.3746 155.828 78.932 155.827 78.4704V70.2769C155.828 69.8153 156.038 69.3727 156.411 69.0463C156.784 68.7199 157.289 68.5363 157.817 68.5358H177.478C178.005 68.5363 178.511 68.7199 178.884 69.0463C179.257 69.3727 179.467 69.8153 179.467 70.2769V78.4704C179.467 78.932 179.257 79.3746 178.884 79.701C178.511 80.0274 178.005 80.211 177.478 80.2116Z" fill="#E6E6E6"/>
<path d="M176.074 87.4834H159.221C158.725 87.4834 158.248 87.3108 157.897 87.0034C157.546 86.6961 157.349 86.2793 157.349 85.8447C157.349 85.4101 157.546 84.9933 157.897 84.686C158.248 84.3786 158.725 84.206 159.221 84.206H176.074C176.57 84.206 177.046 84.3786 177.398 84.686C177.749 84.9933 177.946 85.4101 177.946 85.8447C177.946 86.2793 177.749 86.6961 177.398 87.0034C177.046 87.3108 176.57 87.4834 176.074 87.4834Z" fill="#CCCCCC"/>
<path d="M164.488 34.2081H136.166C135.111 34.207 134.1 33.8398 133.354 33.187C132.608 32.5342 132.189 31.649 132.187 30.7258V7.61354C132.189 6.69031 132.608 5.80519 133.354 5.15236C134.1 4.49954 135.111 4.13233 136.166 4.13129H164.488C165.542 4.13233 166.554 4.49954 167.3 5.15236C168.046 5.80519 168.465 6.69031 168.467 7.61354V30.7258C168.465 31.649 168.046 32.5342 167.3 33.187C166.554 33.8398 165.542 34.207 164.488 34.2081ZM136.166 4.54096C135.236 4.54189 134.343 4.8659 133.685 5.44192C133.027 6.01794 132.657 6.79893 132.655 7.61354V30.7258C132.657 31.5404 133.027 32.3214 133.685 32.8974C134.343 33.4735 135.236 33.7975 136.166 33.7984H164.488C165.418 33.7975 166.311 33.4735 166.969 32.8974C167.627 32.3214 167.997 31.5404 167.998 30.7258V7.61354C167.997 6.79893 167.627 6.01794 166.969 5.44192C166.311 4.8659 165.418 4.54189 164.488 4.54096H136.166Z" fill="#3F3D56"/>
<path d="M158.753 26.9536H141.901C141.404 26.9536 140.928 26.7809 140.577 26.4736C140.226 26.1663 140.028 25.7495 140.028 25.3149C140.028 24.8802 140.226 24.4634 140.577 24.1561C140.928 23.8488 141.404 23.6761 141.901 23.6761H158.753C159.25 23.6761 159.726 23.8488 160.077 24.1561C160.428 24.4634 160.626 24.8802 160.626 25.3149C160.626 25.7495 160.428 26.1663 160.077 26.4736C159.726 26.7809 159.25 26.9536 158.753 26.9536Z" fill="#CCCCCC"/>
<path d="M158.753 20.8084H141.901C141.404 20.8084 140.928 20.6358 140.577 20.3284C140.226 20.0211 140.028 19.6043 140.028 19.1697C140.028 18.7351 140.226 18.3183 140.577 18.011C140.928 17.7036 141.404 17.531 141.901 17.531H158.753C159.25 17.531 159.726 17.7036 160.077 18.011C160.428 18.3183 160.626 18.7351 160.626 19.1697C160.626 19.6043 160.428 20.0211 160.077 20.3284C159.726 20.6358 159.25 20.8084 158.753 20.8084Z" fill="#CCCCCC"/>
<path d="M158.753 14.6632H141.901C141.404 14.6632 140.928 14.4906 140.577 14.1833C140.226 13.876 140.028 13.4591 140.028 13.0245C140.028 12.5899 140.226 12.1731 140.577 11.8658C140.928 11.5585 141.404 11.3858 141.901 11.3858H158.753C159.25 11.3858 159.726 11.5585 160.077 11.8658C160.428 12.1731 160.626 12.5899 160.626 13.0245C160.626 13.4591 160.428 13.876 160.077 14.1833C159.726 14.4906 159.25 14.6632 158.753 14.6632Z" fill="#CCCCCC"/>
<path d="M114.399 34.0032C117.372 34.0032 119.782 31.8939 119.782 29.2919C119.782 26.69 117.372 24.5806 114.399 24.5806C111.426 24.5806 109.015 26.69 109.015 29.2919C109.015 31.8939 111.426 34.0032 114.399 34.0032Z" fill="#6C63FF"/>
<path d="M113.865 31.0892C113.744 31.0894 113.626 31.0551 113.529 30.9915L113.523 30.9876L112.258 30.1399C112.199 30.1007 112.15 30.0517 112.113 29.9957C112.075 29.9398 112.051 29.878 112.041 29.8138C112.031 29.7496 112.036 29.6844 112.055 29.6218C112.074 29.5593 112.107 29.5006 112.152 29.4492C112.197 29.3978 112.253 29.3547 112.317 29.3223C112.382 29.29 112.452 29.269 112.526 29.2606C112.599 29.2522 112.673 29.2566 112.745 29.2735C112.816 29.2904 112.883 29.3194 112.942 29.359L113.761 29.9089L115.698 27.6987C115.743 27.6474 115.799 27.6044 115.863 27.5721C115.927 27.5398 115.997 27.5188 116.07 27.5103C116.143 27.5019 116.218 27.5061 116.289 27.5228C116.36 27.5395 116.427 27.5683 116.486 27.6076L116.474 27.6219L116.486 27.6078C116.604 27.6873 116.682 27.8046 116.701 27.9339C116.721 28.0631 116.681 28.1939 116.59 28.2975L114.312 30.8972C114.26 30.9571 114.192 31.0056 114.114 31.0389C114.037 31.0722 113.952 31.0894 113.865 31.0892Z" fill="white"/>
<path d="M184.617 55.1016C187.59 55.1016 190 52.9923 190 50.3903C190 47.7883 187.59 45.679 184.617 45.679C181.643 45.679 179.233 47.7883 179.233 50.3903C179.233 52.9923 181.643 55.1016 184.617 55.1016Z" fill="#3F3D56"/>
<path d="M184.083 52.1876C183.962 52.1878 183.844 52.1535 183.747 52.0899L183.741 52.086L182.476 51.2383C182.417 51.1991 182.368 51.1501 182.33 51.0941C182.293 51.0382 182.269 50.9763 182.259 50.9122C182.249 50.848 182.254 50.7828 182.273 50.7202C182.292 50.6576 182.325 50.599 182.37 50.5476C182.415 50.4962 182.471 50.4531 182.535 50.4207C182.599 50.3883 182.67 50.3674 182.743 50.359C182.817 50.3506 182.891 50.355 182.963 50.3719C183.034 50.3887 183.101 50.4178 183.16 50.4573L183.979 51.0072L185.916 48.7971C185.96 48.7458 186.016 48.7028 186.08 48.6704C186.144 48.6381 186.215 48.6171 186.288 48.6087C186.361 48.6002 186.436 48.6045 186.507 48.6212C186.578 48.6379 186.645 48.6667 186.704 48.706L186.692 48.7203L186.704 48.7062C186.822 48.7857 186.899 48.9029 186.919 49.0322C186.938 49.1615 186.898 49.2923 186.808 49.3959L184.53 51.9956C184.478 52.0555 184.41 52.104 184.332 52.1373C184.255 52.1706 184.169 52.1878 184.083 52.1876Z" fill="white"/>
<path d="M167.53 9.42258C170.503 9.42258 172.914 7.31326 172.914 4.71129C172.914 2.10932 170.503 0 167.53 0C164.557 0 162.147 2.10932 162.147 4.71129C162.147 7.31326 164.557 9.42258 167.53 9.42258Z" fill="#3F3D56"/>
<path d="M166.997 6.50855C166.876 6.50875 166.758 6.47447 166.661 6.41089L166.655 6.40694L165.39 5.55925C165.331 5.52005 165.281 5.47107 165.244 5.41511C165.207 5.35915 165.183 5.29731 165.173 5.23314C165.163 5.16897 165.168 5.10374 165.187 5.04117C165.206 4.97861 165.239 4.91995 165.284 4.86856C165.329 4.81716 165.385 4.77405 165.449 4.74169C165.513 4.70933 165.584 4.68835 165.657 4.67997C165.731 4.67158 165.805 4.67596 165.876 4.69283C165.948 4.70971 166.015 4.73876 166.073 4.77832L166.893 5.32823L168.829 3.11804C168.874 3.06677 168.93 3.02375 168.994 2.99143C169.058 2.95912 169.129 2.93813 169.202 2.92968C169.275 2.92122 169.349 2.92546 169.421 2.94216C169.492 2.95886 169.559 2.98769 169.617 3.027L169.605 3.0413L169.618 3.0272C169.736 3.10668 169.813 3.22392 169.833 3.35321C169.852 3.48251 169.812 3.61329 169.722 3.71687L167.444 6.31658C167.391 6.37648 167.323 6.42496 167.246 6.45826C167.168 6.49155 167.083 6.50876 166.997 6.50855Z" fill="white"/>
<path d="M89.4107 127H0.234059C0.171983 127 0.112449 126.978 0.0685542 126.94C0.0246596 126.902 0 126.849 0 126.795C0 126.741 0.0246596 126.689 0.0685542 126.65C0.112449 126.612 0.171983 126.59 0.234059 126.59H89.4107C89.4728 126.59 89.5323 126.612 89.5762 126.65C89.6201 126.689 89.6447 126.741 89.6447 126.795C89.6447 126.849 89.6201 126.902 89.5762 126.94C89.5323 126.978 89.4728 127 89.4107 127Z" fill="#3F3D56"/>
</g>
<defs>
<clipPath id="clip0_13_187">
<rect width="190" height="127" fill="white"/>
</clipPath>
</defs>
</svg>
